<?xml version="1.0" encoding="utf-8"?>
<!-- Svg Vector Icons : http://www.onlinewebfonts.com/icon -->
<!DOCTYPE svg PUBLIC "-//W3C//DTD SVG 1.1//EN" "http://www.w3.org/Graphics/SVG/1.1/DTD/svg11.dtd">
<svg version="1.1" xmlns="http://www.w3.org/2000/svg" xmlns:xlink="http://www.w3.org/1999/xlink" x="0px" y="0px" viewBox="0 0 1000 1000" enable-background="new 0 0 1000 1000" xml:space="preserve">
<metadata> Svg Vector Icons : http://www.onlinewebfonts.com/icon </metadata>
<g><path d="M372.9,739.9c-52.2,0-101.3-2.3-138.4-6.6C71,714.6,11.3,638,10,572.5c0-159.7,157.6-230,164.2-232.9c20.6-11.6,37.1-14.1,47.1-14.1c8.8,0,14,1.9,15.9,2.7c19,7,66.8,47.5,98.3,85.6c-5.3-35.6-22.8-59.8-29.7-68.1c-12.1-14.6-22.8-20-26.8-20h-36.8l25.3-26c20.7-20.7,89-36.7,133.9-36.7c20.3,0,34.8,3,44.2,9.3c15.8,10.5,81.2,63.4,118.6,125.7c-8.4-54.7-43-100.9-50.3-106l-47.5-21.6l52.5-6.9c15.6-2.2,31-3.3,45.6-3.3c121.5,0,183.3,75.1,210.3,146.1c1.2-33.2-1.2-66.4-3.1-82.7l-2.9-24.9l23.4,8.9c4.7,1.8,115.2,44.2,161.3,105.5c49.2,65.6,48.8,141.7-1.2,193.9l-1.5,1.4C797.2,730.4,469.6,739.9,372.9,739.9z M221.3,356c-5.2,0-16.5,1.4-33.6,10.9C185,368.2,40.5,433,40.5,572.2c1,52.3,53.5,114.3,197.5,130.8c36,4.1,83.9,6.4,134.9,6.4c94,0,411.8-9,557.9-124.3c38.4-40.8,37.7-101-1.9-153.7c-29.1-38.7-91.3-70.5-125-85.7c2.4,37.1,3.9,105.3-13.5,144.9l-25.5,58l-3.7-63.2c-4-67.4-50.2-194.8-196.9-194.8c-3.9,0-7.9,0.1-11.8,0.3c27.1,38.3,58.6,111.5,36.4,179.3l-20.1,61.4l-9.4-63.9c-10.2-69.3-100.6-150-130.6-170c-1.1-0.7-7.3-4.2-27.3-4.2c-29.2,0-65.3,7.4-89.1,15.8c5.8,4.6,11.5,10.3,17,16.9c11.8,14.3,49.3,66.7,35.1,142.1l-14,74.4l-15.9-74.1c-6.3-29.4-89-105-108.6-112.2C225.9,356.4,224.3,356,221.3,356z"/></g>
</svg>