<?xml version="1.0" standalone="no"?>
<!DOCTYPE svg PUBLIC "-//W3C//DTD SVG 20010904//EN"
 "http://www.w3.org/TR/2001/REC-SVG-20010904/DTD/svg10.dtd">
<svg version="1.0" xmlns="http://www.w3.org/2000/svg"
 width="120.000000pt" height="120.000000pt" viewBox="0 0 120.000000 120.000000"
 preserveAspectRatio="xMidYMid meet">

<g transform="translate(0.000000,120.000000) scale(0.100000,-0.100000)"
fill="#000000" stroke="none">
<path d="M345 1189 c-30 -18 -157 -123 -184 -153 l-24 -26 10 -145 c6 -81 15
-151 21 -157 6 -6 73 -28 149 -49 162 -44 161 -45 268 53 l65 60 0 158 c0 194
-2 197 -122 235 -101 32 -157 39 -183 24z m218 -68 c25 -9 42 -22 48 -38 5
-13 9 -85 9 -159 l0 -135 -51 -47 c-28 -26 -63 -55 -78 -64 l-28 -18 -11 143
c-7 89 -8 143 -2 145 23 8 145 103 145 114 0 23 -23 18 -63 -16 -89 -74 -104
-79 -185 -66 -39 6 -85 16 -101 21 -20 6 -33 6 -40 -1 -18 -18 7 -29 104 -47
l95 -18 7 -60 c3 -33 8 -93 10 -133 l5 -74 -31 6 c-52 11 -181 46 -193 54 -10
6 -33 182 -33 253 0 29 22 49 160 152 l45 33 75 -17 c42 -9 93 -22 113 -28z"/>
<path d="M825 832 c-16 -11 -65 -52 -107 -91 l-78 -73 0 -154 0 -155 33 -14
c18 -8 87 -28 152 -46 140 -37 138 -37 246 61 l64 57 0 149 c0 82 -4 160 -7
174 -10 34 -49 55 -159 85 -112 30 -106 30 -144 7z m144 -43 c137 -31 133 -26
134 -203 l0 -147 -39 -40 c-21 -22 -58 -53 -81 -68 l-42 -28 -129 35 -129 35
-7 60 c-3 33 -6 97 -6 142 0 76 2 83 29 109 44 42 155 125 168 126 6 0 52 -9
102 -21z"/>
<path d="M1020 664 c-72 -73 -86 -78 -183 -58 -45 9 -94 23 -110 30 -24 13
-28 13 -33 -1 -4 -9 -3 -19 0 -23 4 -4 55 -18 114 -33 l107 -26 3 -111 c1 -64
7 -112 12 -112 6 0 13 0 18 0 4 0 6 53 4 118 l-3 117 40 29 c58 42 104 93 97
105 -11 18 -19 13 -66 -35z"/>
<path d="M275 577 c-66 -38 -206 -152 -211 -173 -8 -31 14 -292 27 -315 11
-21 60 -37 211 -69 l106 -23 33 21 c19 11 61 48 93 81 l59 60 -2 103 c-2 125
-15 224 -32 244 -17 21 -62 38 -160 63 -93 23 -96 24 -124 8z m236 -78 c31
-16 40 -53 46 -196 l6 -133 -45 -43 c-24 -24 -60 -55 -79 -69 l-34 -26 -135
29 c-141 32 -160 42 -161 88 0 14 -4 76 -9 136 -6 78 -5 114 3 124 6 7 43 35
82 61 38 26 78 56 88 67 18 20 18 20 118 -3 55 -13 109 -29 120 -35z"/>
<path d="M470 430 c-12 -17 -41 -45 -65 -64 l-44 -33 -108 29 c-162 44 -156
43 -151 23 2 -14 32 -26 126 -51 68 -18 125 -34 127 -36 2 -2 5 -55 7 -118 4
-102 6 -115 23 -119 17 -3 18 4 12 121 l-6 124 69 69 c38 38 67 72 64 77 -10
16 -33 7 -54 -22z"/>
</g>
</svg>
